<svg width="205" height="67" viewBox="0 0 205 67" fill="none" xmlns="http://www.w3.org/2000/svg">
<g filter="url(#filter0_d_1_1852)">
<g clip-path="url(#clip0_1_1852)">
<path d="M65.2915 17.4142V39.6695C65.2915 40.5772 65.0919 41.4512 64.7594 42.2245C64.2273 43.4347 63.3293 44.4433 62.1654 45.1156L52.8536 50.5282L43.1095 56.2096C42.3778 56.6131 41.613 56.882 40.8148 57.0165C39.5511 57.1846 38.2208 56.9492 37.0568 56.3441C36.9903 56.3105 36.9238 56.2769 36.8573 56.2433L32.2679 53.5538L17.8347 45.1156C16.6707 44.4433 15.7728 43.4011 15.2407 42.2245C14.8748 41.4176 14.7086 40.5772 14.7086 39.6695V17.4142C14.7086 15.1618 15.9058 13.0775 17.8347 11.9681L33.1991 2.99198L35.8596 1.44554L36.8573 0.874034C38.0878 0.168051 39.4513 -0.100895 40.8148 0.100814C41.613 0.201669 42.3778 0.470615 43.1095 0.874034L52.8536 6.55551L62.1654 12.0017C64.0942 13.0775 65.2915 15.1618 65.2915 17.4142Z" fill="#217C58"/>
<path d="M39.9834 54.5288C39.418 54.5288 38.8859 54.3944 38.3871 54.0918L18.8989 42.6952C17.9012 42.1237 17.3026 41.0479 17.3026 39.9049V17.1454C17.3026 16.0023 17.9012 14.9266 18.8989 14.3551L38.3871 2.99209C38.8859 2.72314 39.418 2.55505 39.9834 2.55505C40.5487 2.55505 41.0808 2.68953 41.5797 2.99209L61.0679 14.3551C62.0656 14.9266 62.6642 16.0023 62.6642 17.1454V39.9049C62.6642 41.0479 62.0656 42.1237 61.0679 42.6952L41.5797 54.0918C41.1141 54.3607 40.5487 54.5288 39.9834 54.5288Z" fill="#21B573"/>
<path d="M60.303 6.52185C60.303 17.3133 60.303 29.5167 60.303 40.3082C53.6185 38.0221 46.6679 38.0221 40.0166 40.3082C40.0166 39.3669 40.0166 38.3919 40.0166 37.4506C46.0693 35.5344 52.3547 35.5344 58.4074 37.4506C58.4074 27.1298 58.4074 16.8427 58.4074 6.52185H60.303Z" fill="#56548C"/>
<path d="M39.9834 37.4506C39.9834 38.3919 39.9834 39.3669 39.9834 40.3082C33.2988 38.0221 26.3483 38.0221 19.697 40.3082C19.697 29.5167 19.697 17.3133 19.697 6.52185H21.6259C21.6259 16.8427 21.6259 27.1298 21.6259 37.4506C27.6453 35.5344 33.964 35.5344 39.9834 37.4506Z" fill="#46467C"/>
<path d="M39.9834 37.4507C39.9834 26.592 39.9834 15.7333 39.9834 4.84099C46.036 2.92475 52.3215 2.92475 58.3741 4.84099C58.3741 5.37888 58.3741 5.95039 58.3741 6.5219C58.3741 16.8427 58.3741 27.1299 58.3741 37.4507C52.3215 35.5344 46.036 35.5344 39.9834 37.4507Z" fill="#E4E8EA"/>
<path d="M39.9833 4.87407C39.9833 15.7328 39.9833 26.5914 39.9833 37.4837C33.9307 35.5675 27.6452 35.5675 21.5926 37.4837C21.5926 27.163 21.5926 16.8758 21.5926 6.55498C21.5926 6.01709 21.5926 5.44558 21.5926 4.87407C27.6452 2.95783 33.9639 2.95783 39.9833 4.87407Z" fill="#F9FBFC"/>
<path d="M21.6259 34.5259C21.6259 35.5009 21.6259 36.4758 21.6259 37.4507C27.6785 35.5345 33.964 35.5345 40.0166 37.4507C40.0166 36.4758 40.0166 35.5009 40.0166 34.5259C33.964 32.6097 27.6453 32.6097 21.6259 34.5259Z" fill="#E4E8EA"/>
<path d="M58.3741 34.5259C58.3741 35.5009 58.3741 36.4758 58.3741 37.4507C52.3215 35.5345 46.036 35.5345 39.9834 37.4507C39.9834 36.4758 39.9834 35.5009 39.9834 34.5259C46.036 32.6097 52.3215 32.6097 58.3741 34.5259Z" fill="#CED5D8"/>
<path d="M37.3228 7.09336C32.9995 6.11843 28.6097 6.11843 24.2864 7.09336L24.1866 6.68994C28.5764 5.71501 32.9995 5.71501 37.3894 6.68994L37.3228 7.09336Z" fill="#56548C"/>
<path d="M37.3228 10.5224C32.9995 9.54743 28.6097 9.54743 24.2864 10.5224L24.1866 10.0853C28.5764 9.11039 32.9995 9.11039 37.3894 10.0853L37.3228 10.5224Z" fill="#56548C"/>
<path d="M37.3228 13.9178C32.9995 12.9429 28.6097 12.9429 24.2864 13.9178L24.1866 13.5144C28.5764 12.5395 32.9995 12.5395 37.3894 13.5144L37.3228 13.9178Z" fill="#56548C"/>
<path d="M37.3228 17.3469C32.9995 16.372 28.6097 16.372 24.2864 17.3469L24.1866 16.9435C28.5764 15.9685 32.9995 15.9685 37.3894 16.9435L37.3228 17.3469Z" fill="#56548C"/>
<path d="M37.3228 20.776C32.9995 19.8347 28.6097 19.8347 24.2864 20.776L24.1866 20.3726C28.5764 19.3976 32.9995 19.3976 37.3894 20.3726L37.3228 20.776Z" fill="#56548C"/>
<path d="M37.3228 24.2051C32.9995 23.2301 28.6097 23.2301 24.2864 24.2051L24.1866 23.8016C28.5764 22.8267 32.9995 22.8267 37.3894 23.8016L37.3228 24.2051Z" fill="#56548C"/>
<path d="M37.3228 27.6341C32.9995 26.6592 28.6097 26.6592 24.2864 27.6341L24.1866 27.2307C28.5764 26.2558 32.9995 26.2558 37.3894 27.2307L37.3228 27.6341Z" fill="#56548C"/>
<path d="M37.3228 31.0632C32.9995 30.0883 28.6097 30.0883 24.2864 31.0632L24.1866 30.6598C28.5764 29.6849 32.9995 29.6849 37.3894 30.6598L37.3228 31.0632Z" fill="#56548C"/>
<path d="M55.6803 7.09336C51.357 6.11843 46.9672 6.11843 42.6438 7.09336L42.5441 6.68994C46.9339 5.71501 51.357 5.71501 55.7468 6.68994L55.6803 7.09336Z" fill="#56548C"/>
<path d="M55.6804 10.5224C51.357 9.54743 46.9672 9.54743 42.6439 10.5224L42.5774 10.0853C46.9672 9.11039 51.3903 9.11039 55.7801 10.0853L55.6804 10.5224Z" fill="#56548C"/>
<path d="M55.6803 13.9178C51.357 12.9429 46.9672 12.9429 42.6438 13.9178L42.5441 13.5144C46.9339 12.5395 51.357 12.5395 55.7468 13.5144L55.6803 13.9178Z" fill="#56548C"/>
<path d="M55.6803 17.3469C51.357 16.372 46.9672 16.372 42.6438 17.3469L42.5441 16.9435C46.9339 15.9685 51.357 15.9685 55.7468 16.9435L55.6803 17.3469Z" fill="#56548C"/>
<path d="M55.6803 20.776C51.357 19.801 46.9672 19.801 42.6438 20.776L42.5441 20.3726C46.9339 19.3976 51.357 19.3976 55.7468 20.3726L55.6803 20.776Z" fill="#56548C"/>
<path d="M55.6803 24.2051C51.357 23.2301 46.9672 23.2301 42.6438 24.2051L42.5441 23.8016C46.9339 22.8267 51.357 22.8267 55.7468 23.8016L55.6803 24.2051Z" fill="#56548C"/>
<path d="M55.6804 27.6341C51.357 26.6592 46.9672 26.6592 42.6439 27.6341L42.5774 27.2307C46.9672 26.2558 51.3903 26.2558 55.7801 27.2307L55.6804 27.6341Z" fill="#56548C"/>
<path d="M55.6803 31.0632C51.357 30.0883 46.9672 30.0883 42.6438 31.0632L42.5441 30.6598C46.9339 29.6849 51.357 29.6849 55.7468 30.6598L55.6803 31.0632Z" fill="#56548C"/>
<path d="M55.6138 43.367C55.6138 42.4593 54.8822 41.7533 54.0175 41.7533H52.4545H48.4305H29.8734L26.049 43.098V44.3419L29.8734 45.6866H48.4305H52.4545H54.0175C54.9155 45.6866 55.6138 44.947 55.6138 44.073V43.367Z" fill="#EEE2D2"/>
<path d="M54.0175 41.7538C54.9154 41.7538 55.6138 42.4934 55.6138 43.3675V44.0399C55.6138 44.9476 54.8822 45.6536 54.0175 45.6536H52.4545V45.0821V44.1407V43.1994V42.2581V41.7202H54.0175V41.7538Z" fill="#F49A9A"/>
<path d="M48.4305 41.7533H52.4545V42.2912H48.4305V41.7533Z" fill="#FBD15B"/>
<path d="M52.4545 43.233V44.1407H48.4305V43.7037V43.233H52.4545Z" fill="#FBD15B"/>
<path d="M52.4545 45.082V45.6872H48.4305V45.082H52.4545Z" fill="#FBD15B"/>
<path d="M52.4545 44.1407H48.4305V45.0821H52.4545V44.1407Z" fill="#E2B137"/>
<path d="M52.4545 42.2917V43.2331H48.4305V42.2917H52.4545Z" fill="#E2B137"/>
<path d="M48.4305 41.7533V42.2912V43.2325V43.7032H29.8734V41.7533H48.4305Z" fill="#56548C"/>
<path d="M48.4305 43.7037V44.1408V45.0821V45.6872H29.8734V43.7037H48.4305Z" fill="#46467C"/>
<path d="M24.3529 43.7036L26.0489 43.0985V44.3424L24.3529 43.7036Z" fill="#3B4D57"/>
<path d="M29.8734 41.7533V43.7032V45.6866L26.049 44.3419V43.098L29.8734 41.7533Z" fill="#FFC8AF"/>
<path d="M14.6088 43.8717C31.0707 49.4187 48.8961 49.4187 65.358 43.8717C66.4887 47.3344 67.6527 50.8307 68.7834 54.2934C50.0933 60.6136 29.8734 60.6136 11.1501 54.2934C12.3141 50.7971 13.4781 47.3344 14.6088 43.8717Z" fill="#FBD15B"/>
<path d="M4 47.5697C6.72702 48.8136 9.4873 49.923 12.3141 50.8643C13.079 48.5447 13.8439 46.1914 14.642 43.8717C16.4046 44.4769 18.1672 44.9811 19.9298 45.4518C20.2291 44.2752 20.5284 43.1321 20.8277 41.9555C16.6374 40.8461 12.5136 39.4005 8.48961 37.5515C8.68914 39.6358 8.92194 41.7538 9.2545 43.8717C7.55843 45.1492 5.79584 46.3931 4 47.5697Z" fill="#F4C653"/>
<path d="M14.6088 43.8718C16.7372 43.3339 18.7991 42.6951 20.7944 41.9891C20.4951 43.1658 20.1958 44.3088 19.8965 45.4854C18.1339 44.9812 16.3714 44.4433 14.6088 43.8718Z" fill="#E2B042"/>
<path d="M76 47.5697C73.273 48.8136 70.5127 49.923 67.6859 50.8643C66.921 48.5447 66.1561 46.1914 65.358 43.8717C63.5954 44.4769 61.8328 44.9811 60.0702 45.4518C59.7709 44.2752 59.4716 43.1321 59.1723 41.9555C63.3626 40.8461 67.4864 39.4005 71.5104 37.5515C71.3108 39.6358 71.078 41.7538 70.7455 43.8717C72.4416 45.1492 74.1709 46.3931 76 47.5697Z" fill="#F4C653"/>
<path d="M65.358 43.8718C63.2295 43.3339 61.1677 42.6951 59.1723 41.9891C59.4716 43.1658 59.7709 44.3088 60.0702 45.4854C61.8328 44.9812 63.6286 44.4433 65.358 43.8718Z" fill="#E2B042"/>
</g>
<path d="M86.3614 38C86.1957 38 86.0466 37.942 85.914 37.826C85.798 37.6934 85.74 37.5443 85.74 37.3786V21.2214C85.74 21.0391 85.798 20.89 85.914 20.774C86.0466 20.658 86.1957 20.6 86.3614 20.6H97.9697C98.152 20.6 98.3011 20.658 98.4171 20.774C98.5331 20.89 98.5911 21.0391 98.5911 21.2214V23.558C98.5911 23.7237 98.5331 23.8729 98.4171 24.0054C98.3011 24.1214 98.152 24.1794 97.9697 24.1794H90.0403V27.5351H97.4229C97.6051 27.5351 97.7543 27.6014 97.8703 27.734C97.9863 27.85 98.0443 27.9991 98.0443 28.1814V30.344C98.0443 30.5097 97.9863 30.6589 97.8703 30.7914C97.7543 30.9074 97.6051 30.9654 97.4229 30.9654H90.0403V34.4206H98.1686C98.3509 34.4206 98.5 34.4786 98.616 34.5946C98.732 34.7106 98.79 34.8597 98.79 35.042V37.3786C98.79 37.5443 98.732 37.6934 98.616 37.826C98.5 37.942 98.3509 38 98.1686 38H86.3614ZM101.744 32.3326C101.562 32.3326 101.412 32.2746 101.296 32.1586C101.18 32.0426 101.122 31.8934 101.122 31.7111V29.3746C101.122 29.1923 101.18 29.0431 101.296 28.9271C101.412 28.8111 101.562 28.7531 101.744 28.7531H109.524C109.706 28.7531 109.856 28.8111 109.972 28.9271C110.104 29.0431 110.17 29.1923 110.17 29.3746V31.7111C110.17 31.8934 110.104 32.0426 109.972 32.1586C109.856 32.2746 109.706 32.3326 109.524 32.3326H101.744ZM125.071 38.2486C123.497 38.2486 122.146 38.0166 121.019 37.5526C119.893 37.0886 119.039 36.4837 118.459 35.738C117.896 34.9757 117.597 34.1471 117.564 33.2523C117.564 33.1197 117.614 33.0037 117.713 32.9043C117.829 32.7883 117.962 32.7303 118.111 32.7303H121.243C121.442 32.7303 121.599 32.7717 121.715 32.8546C121.848 32.9209 121.981 33.0286 122.113 33.1777C122.329 33.6086 122.677 33.9649 123.157 34.2466C123.638 34.5283 124.276 34.6691 125.071 34.6691C126.016 34.6691 126.737 34.52 127.234 34.2217C127.731 33.9234 127.979 33.5174 127.979 33.0037C127.979 32.6391 127.847 32.3409 127.582 32.1089C127.333 31.8769 126.935 31.6697 126.389 31.4874C125.842 31.3051 125.03 31.098 123.953 30.866C121.964 30.4517 120.473 29.8469 119.478 29.0514C118.501 28.2394 118.012 27.0877 118.012 25.5963C118.012 24.5854 118.293 23.6823 118.857 22.8869C119.42 22.0914 120.224 21.47 121.268 21.0226C122.312 20.5751 123.53 20.3514 124.922 20.3514C126.364 20.3514 127.615 20.6 128.675 21.0971C129.736 21.5943 130.54 22.224 131.087 22.9863C131.65 23.732 131.948 24.4694 131.981 25.1986C131.981 25.3477 131.932 25.472 131.832 25.5714C131.733 25.6709 131.609 25.7206 131.459 25.7206H128.178C127.979 25.7206 127.814 25.6874 127.681 25.6211C127.565 25.5549 127.457 25.4471 127.358 25.298C127.259 24.9169 126.985 24.5937 126.538 24.3286C126.107 24.0634 125.568 23.9309 124.922 23.9309C124.176 23.9309 123.605 24.0634 123.207 24.3286C122.809 24.5937 122.61 24.9831 122.61 25.4969C122.61 25.8449 122.718 26.1349 122.933 26.3669C123.165 26.5989 123.53 26.8143 124.027 27.0131C124.541 27.1954 125.27 27.386 126.215 27.5849C127.756 27.8666 128.982 28.2229 129.893 28.6537C130.821 29.068 131.501 29.6149 131.932 30.2943C132.363 30.9571 132.578 31.794 132.578 32.8049C132.578 33.9151 132.255 34.8846 131.609 35.7131C130.979 36.5251 130.092 37.1549 128.949 37.6023C127.822 38.0331 126.529 38.2486 125.071 38.2486ZM140.733 38.2486C138.861 38.2486 137.344 37.7514 136.184 36.7571C135.024 35.7463 134.403 34.346 134.32 32.5563L134.295 31.562L134.32 30.5429C134.386 28.7531 135 27.3529 136.16 26.342C137.336 25.3311 138.861 24.8257 140.733 24.8257C142.142 24.8257 143.327 25.0826 144.288 25.5963C145.266 26.0934 145.986 26.6983 146.45 27.4109C146.931 28.1069 147.188 28.7449 147.221 29.3249C147.238 29.4906 147.18 29.6397 147.047 29.7723C146.931 29.8883 146.782 29.9463 146.6 29.9463H143.443C143.26 29.9463 143.12 29.9049 143.02 29.822C142.921 29.7391 142.83 29.6149 142.747 29.4491C142.548 28.9354 142.291 28.5709 141.976 28.3554C141.678 28.14 141.288 28.0323 140.808 28.0323C139.449 28.0323 138.745 28.9106 138.695 30.6671L138.67 31.6117L138.695 32.432C138.728 33.3269 138.919 33.9897 139.267 34.4206C139.631 34.8349 140.145 35.042 140.808 35.042C141.322 35.042 141.728 34.9343 142.026 34.7189C142.324 34.5034 142.564 34.1389 142.747 33.6251C142.83 33.4594 142.921 33.3351 143.02 33.2523C143.12 33.1694 143.26 33.128 143.443 33.128H146.6C146.765 33.128 146.906 33.186 147.022 33.302C147.155 33.4014 147.221 33.534 147.221 33.6997C147.221 34.23 146.989 34.8514 146.525 35.564C146.078 36.2766 145.365 36.9063 144.387 37.4531C143.41 37.9834 142.192 38.2486 140.733 38.2486ZM150.076 38C149.91 38 149.761 37.942 149.628 37.826C149.512 37.6934 149.454 37.5443 149.454 37.3786V20.9729C149.454 20.7906 149.512 20.6414 149.628 20.5254C149.761 20.4094 149.91 20.3514 150.076 20.3514H153.257C153.44 20.3514 153.589 20.4094 153.705 20.5254C153.821 20.6414 153.879 20.7906 153.879 20.9729V26.516C154.873 25.3891 156.182 24.8257 157.806 24.8257C158.767 24.8257 159.621 25.0411 160.367 25.472C161.129 25.9029 161.725 26.5409 162.156 27.386C162.587 28.2311 162.803 29.2503 162.803 30.4434V37.3786C162.803 37.5443 162.745 37.6934 162.629 37.826C162.513 37.942 162.363 38 162.181 38H158.975C158.809 38 158.66 37.942 158.527 37.826C158.411 37.6934 158.353 37.5443 158.353 37.3786V30.5926C158.353 29.8137 158.163 29.2171 157.781 28.8029C157.417 28.372 156.878 28.1566 156.166 28.1566C155.453 28.1566 154.89 28.372 154.475 28.8029C154.078 29.2171 153.879 29.8137 153.879 30.5926V37.3786C153.879 37.5609 153.821 37.71 153.705 37.826C153.589 37.942 153.44 38 153.257 38H150.076ZM171.736 38.2486C169.681 38.2486 168.099 37.7597 166.988 36.782C165.878 35.8043 165.273 34.4289 165.174 32.6557C165.157 32.4403 165.149 32.0674 165.149 31.5371C165.149 31.0069 165.157 30.634 165.174 30.4186C165.273 28.662 165.895 27.2949 167.038 26.3171C168.181 25.3229 169.747 24.8257 171.736 24.8257C173.741 24.8257 175.315 25.3229 176.459 26.3171C177.602 27.2949 178.224 28.662 178.323 30.4186C178.34 30.634 178.348 31.0069 178.348 31.5371C178.348 32.0674 178.34 32.4403 178.323 32.6557C178.224 34.4289 177.619 35.8043 176.509 36.782C175.398 37.7597 173.807 38.2486 171.736 38.2486ZM171.736 35.216C172.465 35.216 173.004 35.0006 173.352 34.5697C173.7 34.1223 173.899 33.4429 173.948 32.5314C173.965 32.3657 173.973 32.0343 173.973 31.5371C173.973 31.04 173.965 30.7086 173.948 30.5429C173.899 29.648 173.691 28.9769 173.327 28.5294C172.979 28.082 172.449 27.8583 171.736 27.8583C170.361 27.8583 169.631 28.7531 169.549 30.5429L169.524 31.5371L169.549 32.5314C169.582 33.4429 169.772 34.1223 170.12 34.5697C170.485 35.0006 171.023 35.216 171.736 35.216ZM186.932 38.2486C184.877 38.2486 183.294 37.7597 182.184 36.782C181.074 35.8043 180.469 34.4289 180.37 32.6557C180.353 32.4403 180.345 32.0674 180.345 31.5371C180.345 31.0069 180.353 30.634 180.37 30.4186C180.469 28.662 181.09 27.2949 182.234 26.3171C183.377 25.3229 184.943 24.8257 186.932 24.8257C188.937 24.8257 190.511 25.3229 191.655 26.3171C192.798 27.2949 193.42 28.662 193.519 30.4186C193.536 30.634 193.544 31.0069 193.544 31.5371C193.544 32.0674 193.536 32.4403 193.519 32.6557C193.42 34.4289 192.815 35.8043 191.704 36.782C190.594 37.7597 189.003 38.2486 186.932 38.2486ZM186.932 35.216C187.661 35.216 188.2 35.0006 188.548 34.5697C188.896 34.1223 189.094 33.4429 189.144 32.5314C189.161 32.3657 189.169 32.0343 189.169 31.5371C189.169 31.04 189.161 30.7086 189.144 30.5429C189.094 29.648 188.887 28.9769 188.523 28.5294C188.175 28.082 187.644 27.8583 186.932 27.8583C185.556 27.8583 184.827 28.7531 184.744 30.5429L184.72 31.5371L184.744 32.5314C184.778 33.4429 184.968 34.1223 185.316 34.5697C185.681 35.0006 186.219 35.216 186.932 35.216ZM196.634 38C196.469 38 196.319 37.942 196.187 37.826C196.071 37.6934 196.013 37.5443 196.013 37.3786V20.9729C196.013 20.7906 196.071 20.6414 196.187 20.5254C196.319 20.4094 196.469 20.3514 196.634 20.3514H199.567C199.75 20.3514 199.899 20.4094 200.015 20.5254C200.131 20.6414 200.189 20.7906 200.189 20.9729V37.3786C200.189 37.5609 200.131 37.71 200.015 37.826C199.899 37.942 199.75 38 199.567 38H196.634Z" fill="#56548C"/>
</g>
<defs>
<filter id="filter0_d_1_1852" x="0" y="0" width="204.189" height="67" filterUnits="userSpaceOnUse" color-interpolation-filters="sRGB">
<feFlood flood-opacity="0" result="BackgroundImageFix"/>
<feColorMatrix in="SourceAlpha" type="matrix" values="0 0 0 0 0 0 0 0 0 0 0 0 0 0 0 0 0 0 127 0" result="hardAlpha"/>
<feOffset dy="4"/>
<feGaussianBlur stdDeviation="2"/>
<feComposite in2="hardAlpha" operator="out"/>
<feColorMatrix type="matrix" values="0 0 0 0 0 0 0 0 0 0 0 0 0 0 0 0 0 0 0.25 0"/>
<feBlend mode="normal" in2="BackgroundImageFix" result="effect1_dropShadow_1_1852"/>
<feBlend mode="normal" in="SourceGraphic" in2="effect1_dropShadow_1_1852" result="shape"/>
</filter>
<clipPath id="clip0_1_1852">
<rect width="72" height="59" fill="white" transform="translate(4)"/>
</clipPath>
</defs>
</svg>
